# xmcd
# Copyright (C) 1995-1998 Ti Kan
#
# Track frame offsets:
#       150
#       12212
#       27105
#       40637
#       52628
#       60071
#       75952
#       92309
#       108542
#       123300
#       137378
#       151046
#       166738
#
# Disc length: 2460 seconds
#
# Revision: 0
# Processed by: cddbd v1.5.2PL0 Copyright (c) Steve Scherf et al.
# Submitted via: CD-Import v1.0
#
DISCID=74099a0d
DTITLE=Matthieu Boré - Frizzante !!
DYEAR=2009
DGENRE=
TTITLE0=Putting On The Ritz
TTITLE1=It's A Good Day
TTITLE2=She
TTITLE3=I Love To See You Smile
TTITLE4=I Love To Singa
TTITLE5=Somebody Loes Me
TTITLE6=Satisfy My Soul
TTITLE7=Dream A Little Dream Of Me
TTITLE8=Side By Side
TTITLE9=Down In Old Shanghai
TTITLE10=Love, Love, Love
TTITLE11=Carioca
TTITLE12=Thank You Girl
EXTD=
EXTT0=
EXTT1=
EXTT2=
EXTT3=
EXTT4=
EXTT5=
EXTT6=
EXTT7=
EXTT8=
EXTT9=
EXTT10=
EXTT11=
EXTT12=
PLAYORDER=
